<svg width="48" height="48" fill="none" xmlns="http://www.w3.org/2000/svg"><path d="M19.287 42.344C7.472 29.067 6.387 20.299 17.572 5.873a.837.837 0 011.033-.237l6.507 3.286c.377.19.552.631.408 1.028l-2.48 6.84a.833.833 0 01-.745.549l-4.201.197a.823.823 0 00-.72.494c-2.02 4.699-1.94 7.388.575 11.676.136.231.378.38.646.401l4.391.341a.833.833 0 01.69.475l3.14 6.643a.833.833 0 01-.309 1.062l-6.155 3.87a.837.837 0 01-1.065-.154z" fill="#FFD53F"/><path d="M31 19.001c2.298 3.143 2.054 5.265 0 8M34 15c4 5 4.367 9.858 1 16" stroke="#fff" stroke-width="2.5" stroke-linecap="round"/></svg>