<svg width="48" height="48" viewBox="0 0 48 48" fill="none" xmlns="http://www.w3.org/2000/svg">
<path d="M19.2868 42.3438C7.4718 29.0671 6.38666 20.2986 17.5719 5.87276C17.8147 5.55957 18.2511 5.4577 18.6049 5.63631L25.1123 8.92168C25.4888 9.11176 25.6639 9.55317 25.5201 9.94966L23.0394 16.7906C22.9247 17.1069 22.6311 17.3232 22.2951 17.339L18.0936 17.5362C17.7793 17.551 17.4992 17.7413 17.3749 18.0303C15.354 22.7289 15.4338 25.4182 17.9488 29.7057C18.0847 29.9374 18.3274 30.0865 18.5952 30.1073L22.9863 30.448C23.2845 30.4712 23.5474 30.6523 23.6752 30.9226L26.8167 37.5661C26.997 37.9474 26.864 38.4033 26.507 38.6278L20.3523 42.4982C20.0095 42.7137 19.556 42.6462 19.2868 42.3438Z" fill="#FFD53F"/>
<path d="M31.0002 19.001C33.2979 22.1445 33.0542 24.2663 31.0002 27.001" stroke="white" stroke-width="2.5" stroke-linecap="round"/>
<path d="M33.9998 15C37.9998 20 38.3675 24.8585 34.9998 31" stroke="white" stroke-width="2.5" stroke-linecap="round"/>
</svg>
